<?xml version="1.0" encoding="UTF-8"?>
<!-- Created with Inkscape (http://www.inkscape.org/) -->
<svg width="310.35" height="54" version="1.1" viewBox="0 0 310.35 54" xml:space="preserve" xmlns="http://www.w3.org/2000/svg"><g transform="translate(-13.925 -6.5891)"><g transform="matrix(1.1838 0 0 1.1838 -32.77 -289.35)" fill="#011c8b">
	<path class="st0" d="m39.5 270.6c-0.7 10.3 5.1 19.3 15.5 23.6 6.6 2.7 17 1.4 22.5-3.2 2.3-1.9 4.5-4.9 5.6-7.5 0.4-0.9 1.1-2.1 1.6-3.5h-11.8c-4.8 0-12.9 0.5-14.1-6.4-1.4-8.2 9-11.3 14-4.5 1.2 1.7 0.7 7.8 1.2 2.4 0.4-3.7-1-7.5-6.2-9.5-1.5-0.6-4.2-1-5.5-1.2 3.4-2.2 11.4-0.1 12 1.2-2.8-5.3-10-6.3-10.6-6.3 2.6-1 8.3 0.5 10.4 1.2 3.3 1.1 6 2.9 8.6 5.9 1.2 1.3 2.4 3.2 3 4.5-0.5-1.8-0.9-3.2-2.4-5.6-3.7-5.9-8.8-8.8-15.4-10.9-4.1-1.4-9.8-0.9-13.5 0.7-5.8 2.5-9.8 5.7-12.8 11.6-1 1.9-2.1 5-2.1 7.5" clip-rule="evenodd" fill-rule="evenodd"/>
	
		<path class="st1" d="m137.5 257.6-0.2 0.2c-1.9 0-3 0.5-3.3 1.5-0.1 0.6-0.2 1.8-0.3 3.7 0 1.4-0.1 3.5-0.1 6.1v7.5c0 4.8-1 8.3-2.9 10.4-2.5 2.7-6.1 4.1-10.8 4.1-4.3 0-7.6-0.7-10-2.1-2-1.2-3.3-2.9-4-5.1-0.4-1.4-0.6-5.1-0.6-11.1v-6.3c0-3.9-0.1-6.4-0.3-7.6-0.1-0.5-0.4-0.8-0.8-0.9-0.2-0.1-1.2-0.1-2.9-0.2l-0.2-0.2v-1.6l0.2-0.2c1.6 0.1 4.1 0.1 7.5 0.1 3.5 0 6 0 7.5-0.1l0.2 0.2v1.6l-0.2 0.2c-1.7 0.1-2.6 0.2-2.9 0.2-0.5 0.1-0.8 0.4-0.8 0.9-0.2 1.2-0.3 3.7-0.3 7.6v5c0 6.2 0.3 9.9 0.8 11.3 1.1 2.7 3.8 4.1 8.2 4.1 2.9 0 5.1-0.7 6.7-2.1 0.7-0.7 1.3-1.3 1.6-2s0.5-1.7 0.7-3.2c0.1-1.3 0.2-2.7 0.2-4.1v-5.1-8.8c0-1.5-0.1-2.4-0.3-2.9-0.1-0.3-0.4-0.6-0.9-0.8-0.4-0.1-1.4-0.3-3-0.4l-0.2-0.2v-1.6l0.2-0.2c1.4 0.1 2.9 0.1 4.4 0.1 1.1 0 3.3 0 6.5-0.1l0.2 0.2v1.9z"/>
		<path class="st1" d="m178.9 257.6-0.3 0.2c-1.7 0.1-2.6 0.2-2.9 0.2-0.5 0.1-0.8 0.4-0.8 0.9-0.2 1.2-0.3 3.7-0.3 7.6v9.9c0 7.3 0.1 12.1 0.3 14.3l-0.3 0.2c-1.8-0.3-3.2-0.5-4.2-0.7-4.4-4.9-11.8-13.9-22.4-26.9v16c0 3.9 0.1 6.4 0.3 7.6 0.1 0.5 0.4 0.8 0.8 0.9 0.2 0.1 1.2 0.1 2.9 0.2l0.2 0.2v1.7l-0.2 0.2c-1.9-0.1-3.6-0.1-5.2-0.1-1.9 0-3.8 0-5.6 0.1l-0.2-0.2v-1.7l0.2-0.2c1.7-0.1 2.6-0.2 2.9-0.2 0.5-0.1 0.7-0.4 0.8-0.9 0.2-1.2 0.3-3.7 0.3-7.6v-12.9c0-3.9-0.1-6.4-0.3-7.6-0.1-0.5-0.4-0.8-0.8-0.9-0.2-0.1-1.2-0.1-2.9-0.2l-0.2-0.2v-1.7l0.2-0.2c1.5 0.1 3 0.1 4.4 0.1 2.2 0 4 0 5.5-0.1 5.9 7.8 12.8 16.2 20.7 25.2v-14.3c0-3.9-0.1-6.4-0.3-7.6-0.1-0.5-0.4-0.8-0.8-0.9-0.2-0.1-1.2-0.1-2.9-0.2l-0.2-0.2v-1.7l0.2-0.2c1.8 0.1 3.6 0.1 5.2 0.1 2.1 0 4 0 5.7-0.1l0.2 0.2z"/>
		<path class="st1" d="m228.9 290.1-0.2 0.2c-1.6-0.1-4.1-0.1-7.5-0.1-3.5 0-6 0-7.5 0.1l-0.2-0.2v-1.7l0.2-0.2c1.7-0.1 2.6-0.2 2.9-0.2 0.5-0.1 0.7-0.4 0.8-0.9 0.2-1.2 0.3-3.7 0.3-7.6v-16.5l-5.5 11.2c-0.3 0.6-1.4 2.9-3.2 6.8l-4.5 9.8h-1.6c-0.8-2-2-4.6-3.4-7.7l-3.4-7.3-6.4-13.3v17c0 3.9 0.1 6.4 0.3 7.6 0.1 0.5 0.4 0.8 0.8 0.9 0.2 0.1 1.2 0.1 2.9 0.2l0.2 0.2v1.7l-0.2 0.2c-1.9-0.1-3.6-0.1-5.2-0.1-1.9 0-3.8 0-5.6 0.1l-0.2-0.2v-1.7l0.2-0.2c1.7-0.1 2.6-0.2 2.9-0.2 0.5-0.1 0.7-0.4 0.8-0.9 0.2-1.2 0.3-3.7 0.3-7.6v-12.9c0-3.9-0.1-6.4-0.3-7.6-0.1-0.5-0.4-0.8-0.8-0.9-0.2-0.1-1.2-0.1-2.9-0.2l-0.2-0.2v-1.7l0.2-0.2c1.7 0.1 3.8 0.1 6.4 0.1 2 0 3.7 0 5.2-0.1 0.5 1.2 1.3 3 2.3 5.2l1.6 3.4 7.8 16.3 3.7-7.6 5.8-12.5c0.7-1.5 1.4-3.1 2-4.8 1.8 0.1 3.1 0.1 3.7 0.1 3.2 0 5.6 0 7.3-0.1l0.2 0.2v1.7l-0.2 0.2c-1.7 0.1-2.6 0.2-2.9 0.2-0.5 0.1-0.8 0.4-0.8 0.9-0.2 1.2-0.3 3.7-0.3 7.6v12.9c0 3.9 0.1 6.4 0.3 7.6 0.1 0.5 0.4 0.8 0.8 0.9 0.2 0.1 1.2 0.1 2.9 0.2l0.2 0.2z"/>
		<path class="st1" d="m270 271c0 5.5-1.8 10.1-5.4 13.7-1.8 1.8-3.9 3.2-6.4 4.1-2.7 1.1-5.8 1.6-9.4 1.5l-8.6-0.1c-2.3 0-4.3 0-5.8 0.1l-0.2-0.2v-0.7l0.1-0.3c1.2-0.8 1.9-1.2 2-1.4 0.1-0.3 0.2-1.4 0.3-3.3l0.1-5.5v-12.4c0-3.9-0.1-6.4-0.3-7.6-0.1-0.5-0.4-0.8-0.8-0.9-0.2-0.1-1.2-0.1-2.9-0.2l-0.2-0.2v-1.7l0.2-0.2c1.7 0.1 3.4 0.1 4.9 0.1 3.8 0 7.2 0 10.3-0.1 1.5 0 3-0.1 4.6-0.1 4.2 0 7.5 0.5 9.8 1.4 2.5 1.1 4.4 2.7 5.8 5 1.2 2.4 1.9 5.4 1.9 9zm-7.5 1.2c0-4.5-1.1-8-3.3-10.4-1.1-1.3-2.6-2.2-4.3-2.7-1.6-0.5-3.9-0.7-6.8-0.7-1.5 0-3 0.1-4.4 0.3-0.2 1.8-0.2 6.2-0.2 13.3v10.7c0 2.4 0.1 4 0.2 4.7 1.4 0.2 2.9 0.3 4.4 0.3 3.2 0 5.8-0.5 7.7-1.4 2-1 3.6-2.8 4.8-5.2 1.3-2.6 1.9-5.6 1.9-8.9z"/>
		<path class="st1" d="m301.6 263.4c0 3.4-1.1 6-3.4 7.9s-4.9 2.8-7.8 2.8c-1 0-2-0.1-3-0.3-0.1-0.4-0.4-1-0.9-1.8l0.5-0.5c0.7 0.2 1.3 0.3 1.9 0.3 1.6 0 3-0.6 4-1.7 1-1.2 1.5-2.8 1.5-4.9 0-4.5-2-6.8-6.1-6.8-0.5 0-1.5 0.1-2.9 0.3-0.1 0.4-0.2 3.1-0.2 8v12.9c0 3.9 0.1 6.4 0.3 7.6 0.1 0.5 0.4 0.8 0.8 0.9 0.1 0 1.3 0.1 3.4 0.2l0.3 0.3v1.6l-0.2 0.2c-2.2-0.1-4.9-0.1-8-0.1-3.5 0-6 0-7.5 0.1l-0.2-0.2v-1.6l0.3-0.3c1.6-0.1 2.6-0.2 2.8-0.2 0.5-0.1 0.8-0.4 0.8-0.9 0.2-1.2 0.3-3.7 0.3-7.6v-12.9c0-3.9-0.1-6.4-0.3-7.6-0.1-0.5-0.4-0.8-0.8-0.9-0.2-0.1-1.2-0.1-2.9-0.2l-0.2-0.3v-1.6l0.3-0.2c1.6 0.1 4.1 0.1 7.4 0.1 1.4 0 3.3 0 5.9-0.1 2.6 0 4.1-0.1 4.5-0.1 4.5 0 7.4 1.1 8.7 3.4 0.3 1.1 0.7 2.5 0.7 4.2z"/>
	
</g></g></svg>
